<?xml version="1.0" ?><svg enable-background="new 0 0 515.91 728.5" height="512" id="Layer_1" version="1.1" viewBox="0 0 512.00003 512" width="512" xml:space="preserve" xmlns="http://www.w3.org/2000/svg" xmlns:cc="http://creativecommons.org/ns#" xmlns:dc="http://purl.org/dc/elements/1.1/" xmlns:inkscape="http://www.inkscape.org/namespaces/inkscape" xmlns:rdf="http://www.w3.org/1999/02/22-rdf-syntax-ns#" xmlns:sodipodi="http://sodipodi.sourceforge.net/DTD/sodipodi-0.dtd" xmlns:svg="http://www.w3.org/2000/svg"><defs id="defs7"/><g id="g10133" transform="translate(394.2274,-2762.336)"><path d="m -733.62329,72.267944 c 0,203.804876 -165.21649,369.021366 -369.02141,369.021366 -203.8048,0 -369.0213,-165.21649 -369.0213,-369.021366 0,-203.804874 165.2165,-369.021364 369.0213,-369.021364 203.80492,0 369.02141,165.21649 369.02141,369.021364 z" id="path4884-0" style="fill:#282828;fill-opacity:1;fill-rule:nonzero;stroke:none" transform="matrix(0.69372678,0,0,0.69372678,626.70674,2968.2018)"/><g id="g10088" style="fill:#ffffff;fill-opacity:1" transform="matrix(0.58397792,0,0,0.58397792,-914.34529,3712.6563)"><path d="m 1266.6924,-1347.4496 c -23.5195,0.3087 -43.7684,4.9188 -63.6626,14.8297 -50.8009,25.3079 -80.1406,78.6021 -80.1406,145.7505 0,67.3047 28.8599,119.0145 79.841,143.204 13.772,6.5348 27.5762,10.091 48.5336,12.5828 10.6078,0.4294 20.5255,1.1789 30.8577,0 20.9574,-2.4918 34.7616,-6.048 48.5336,-12.5828 50.9811,-24.1895 79.8405,-75.8993 79.8405,-143.204 0,-67.1484 -29.3392,-120.4426 -80.1401,-145.7505 -19.8942,-9.9109 -40.1431,-14.521 -63.6631,-14.8297 z m 20.2226,47.3352 c 30.503,8.1305 52.6367,35.6519 61.1163,75.7962 5.9563,28.1935 4.3328,60.7727 -4.1942,86.4317 -13.2788,39.9605 -42.1085,62.5273 -77.1447,62.165 -35.0357,0.3623 -63.8654,-22.2045 -77.1442,-62.165 -8.527,-25.659 -10.1506,-58.2382 -4.1942,-86.4317 8.4796,-40.1443 30.6133,-67.6657 61.1163,-75.7962 13.831,-2.9314 27.6121,-2.4033 40.4447,0 z" id="path10079" style="fill:#ffffff;fill-opacity:1"/><path d="m 1064.125,-1347.4496 c -16.8414,0 -30.494,13.6527 -30.494,30.494 0,16.8414 13.6526,30.494 30.494,30.494 16.8414,0 30.494,-13.6526 30.494,-30.494 0,-16.8413 -13.6526,-30.494 -30.494,-30.494 z m -28.4944,93.0442 0,223.9558 56.9888,0 0,-223.9558 -56.9888,0 z" id="path10077" style="fill:#ffffff;fill-opacity:1;fill-rule:nonzero;stroke:none"/><path d="m 1493.3539,-1030.9182 c -24.4157,-4.1807 -47.8996,-7.4207 -67.8324,-18.7346 -0.2661,-0.2336 11.7677,-45.1965 12.311,-45.9985 32.0377,10.8778 77.1391,26.1381 107.5478,12.1592 16.5791,-8.2942 24.7455,-23.6252 22.0022,-41.306 -3.0863,-19.891 -16.8608,-31.3529 -54.6627,-45.4849 -42.1613,-15.7618 -66.8886,-35.1379 -76.9938,-60.3315 -4.9687,-12.3877 -6.6165,-28.1592 -4.3814,-41.9353 6.2163,-38.3136 36.0643,-64.9689 81.8718,-73.1144 13.2712,-2.3599 41.651,-2.3845 55.6147,-0.048 20.1242,3.367 43.2008,10.9778 43.2008,14.2478 0,1.2075 -11.792,42.7803 -12.3958,43.7014 -19.8971,-7.8803 -42.211,-13.513 -61.0952,-13.6212 -26.7244,-0.3729 -55.7002,15.4876 -50.5919,43.499 3.6176,17.5549 14.8214,26.1257 56.0541,42.8807 30.3685,12.3403 44.9407,20.852 57.4333,33.547 17.3561,17.3331 22.8427,37.6683 22.9702,57.8233 0.046,16.7898 -1.5193,24.6223 -7.5098,37.5831 -14.5526,31.4851 -44.223,49.7839 -88.7836,54.7566 -8.3501,0.9317 -28.0187,1.1447 -34.7593,0.3764 z" id="path10039" style="fill:#ffffff;fill-opacity:1"/></g></g><path d="m 74.980696,437.01935 c 99.974224,99.97422 262.064454,99.97422 362.038674,0 99.97421,-99.97422 99.97422,-262.06445 0,-362.03867 L 74.980696,437.01935 z" id="path3752" style="fill:#000000;fill-opacity:0.30366492;fill-rule:nonzero;stroke:none"/></svg>