<?xml version="1.0" ?><svg enable-background="new 0 0 515.91 728.5" height="512" id="Layer_1" version="1.1" viewBox="0 0 512.00003 512" width="512" xml:space="preserve" xmlns="http://www.w3.org/2000/svg" xmlns:cc="http://creativecommons.org/ns#" xmlns:dc="http://purl.org/dc/elements/1.1/" xmlns:inkscape="http://www.inkscape.org/namespaces/inkscape" xmlns:rdf="http://www.w3.org/1999/02/22-rdf-syntax-ns#" xmlns:sodipodi="http://sodipodi.sourceforge.net/DTD/sodipodi-0.dtd" xmlns:svg="http://www.w3.org/2000/svg"><defs id="defs7"/><g id="g10184" transform="matrix(1.2190477,0,0,1.2190477,-6357.3341,-4512.915)"><path d="m 5425.0003,3702.0003 c -115.983,0 -210,94.024 -210,210 0,115.983 94.017,210 210,210 115.983,0 210,-94.017 210,-210 0,-115.976 -94.017,-210 -210,-210 z" id="path10182" style="fill:#1793d1;fill-opacity:1"/><path d="m 5445.0073,3924.6083 80.353,117.26 h -22.726 l -55.523,-81.014 -22.111,-32.265 -22.11,32.266 -55.523,81.014 h -22.726 l 80.353,-117.26 8.644,-12.609 -8.645,-12.608 -80.353,-117.259 h 22.726 l 55.523,81.013 22.111,32.265 22.11,-32.266 55.523,-81.013 h 22.726 l -80.353,117.259 -8.644,12.609 8.645,12.608 z" id="path236" style="fill:#ffffff;fill-opacity:1"/></g><path d="m 74.980696,437.01935 c 99.974224,99.97422 262.064454,99.97422 362.038674,0 99.97421,-99.97422 99.97422,-262.06445 0,-362.03867 L 74.980696,437.01935 z" id="path3752" style="fill:#000000;fill-opacity:0.30366492;fill-rule:nonzero;stroke:none"/></svg>