<?xml version="1.0" ?><svg enable-background="new 0 0 515.91 728.5" height="512" id="Layer_1" version="1.1" viewBox="0 0 512.00003 512" width="512" xml:space="preserve" xmlns="http://www.w3.org/2000/svg" xmlns:cc="http://creativecommons.org/ns#" xmlns:dc="http://purl.org/dc/elements/1.1/" xmlns:inkscape="http://www.inkscape.org/namespaces/inkscape" xmlns:rdf="http://www.w3.org/1999/02/22-rdf-syntax-ns#" xmlns:sodipodi="http://sodipodi.sourceforge.net/DTD/sodipodi-0.dtd" xmlns:svg="http://www.w3.org/2000/svg"><defs id="defs7"/><g id="g4492" transform="translate(136.1786,108.25001)"><path d="m -733.62329,72.267944 c 0,203.804876 -165.21649,369.021366 -369.02141,369.021366 -203.8048,0 -369.0213,-165.21649 -369.0213,-369.021366 0,-203.804874 165.2165,-369.021364 369.0213,-369.021364 203.80492,0 369.02141,165.21649 369.02141,369.021364 z" id="path5022" style="fill:#00a1f1;fill-opacity:1;fill-rule:nonzero;stroke:none" transform="matrix(0.69372682,0,0,0.69372682,884.75558,97.615782)"/><g id="g4390" transform="matrix(1.192917,0,0,1.192917,-2136.5766,-1759.935)"><polygon id="polygon15467" points="15,15 15,2.5 32,0 32,15 " style="fill:#ffffff;fill-opacity:1" transform="matrix(8.9067392,0,0,8.9067392,1731.3252,1456.6689)"/><polygon id="polygon15469" points="0,15 0,4.703 13,2.797 13,15 " style="fill:#ffffff;fill-opacity:1" transform="matrix(8.9067392,0,0,8.9067392,1731.3252,1456.6689)"/><polygon id="polygon15471" points="15,17 15,29.5 32,32 32,17 " style="fill:#ffffff;fill-opacity:1" transform="matrix(8.9067392,0,0,8.9067392,1731.3252,1456.6689)"/><polygon id="polygon15473" points="0,17 0,27.297 13,29.203 13,17 " style="fill:#ffffff;fill-opacity:1" transform="matrix(8.9067392,0,0,8.9067392,1731.3252,1456.6689)"/></g></g><path d="m 74.980696,437.01935 c 99.974224,99.97422 262.064454,99.97422 362.038674,0 99.97421,-99.97422 99.97422,-262.06445 0,-362.03867 L 74.980696,437.01935 z" id="path3752" style="fill:#000000;fill-opacity:0.30366492;fill-rule:nonzero;stroke:none"/></svg>